<svg width="25" height="25" viewBox="0 0 25 25" fill="none" xmlns="http://www.w3.org/2000/svg">
<g clip-path="url(#clip0_76_5625)">
<path d="M19.4167 5.83268H16.8433C16.5787 5.33357 16.2316 4.88277 15.8167 4.49935H19.4167C19.5935 4.49935 19.763 4.42911 19.8881 4.30409C20.0131 4.17906 20.0833 4.00949 20.0833 3.83268C20.0833 3.65587 20.0131 3.4863 19.8881 3.36128C19.763 3.23625 19.5935 3.16602 19.4167 3.16602H7.41667C7.23986 3.16602 7.07029 3.23625 6.94526 3.36128C6.82024 3.4863 6.75 3.65587 6.75 3.83268C6.75 4.00949 6.82024 4.17906 6.94526 4.30409C7.07029 4.42911 7.23986 4.49935 7.41667 4.49935H12.45C12.9864 4.49982 13.516 4.61972 14.0003 4.85035C14.4846 5.08097 14.9115 5.41653 15.25 5.83268H7.41667C7.23986 5.83268 7.07029 5.90292 6.94526 6.02794C6.82024 6.15297 6.75 6.32254 6.75 6.49935C6.75 6.67616 6.82024 6.84573 6.94526 6.97075C7.07029 7.09578 7.23986 7.16602 7.41667 7.16602H15.9433C16.0362 7.49352 16.0833 7.83228 16.0833 8.17268C16.0851 9.13931 15.7037 10.0672 15.0227 10.7532C14.3417 11.4392 13.4166 11.8274 12.45 11.8327H8.17667C8.04855 11.8328 7.92319 11.8699 7.8156 11.9395C7.708 12.009 7.62272 12.1081 7.56997 12.2249C7.51722 12.3416 7.49923 12.4711 7.51815 12.5978C7.53708 12.7245 7.59211 12.8431 7.67667 12.9394L15.4567 21.8327C15.5131 21.9028 15.5832 21.9607 15.6626 22.003C15.7421 22.0453 15.8292 22.071 15.9189 22.0787C16.0086 22.0864 16.0989 22.0759 16.1843 22.0477C16.2698 22.0196 16.3487 21.9744 16.4163 21.915C16.4838 21.8555 16.5387 21.783 16.5774 21.7018C16.6162 21.6206 16.6382 21.5324 16.6419 21.4425C16.6457 21.3525 16.6312 21.2628 16.5994 21.1786C16.5676 21.0944 16.519 21.0176 16.4567 20.9527L9.65 13.166H12.4567C13.195 13.1601 13.9228 12.9909 14.5881 12.6706C15.2533 12.3503 15.8395 11.8868 16.3046 11.3134C16.7697 10.74 17.1023 10.0708 17.2784 9.35379C17.4545 8.63677 17.4698 7.88967 17.3233 7.16602H19.4167C19.5935 7.16602 19.763 7.09578 19.8881 6.97075C20.0131 6.84573 20.0833 6.67616 20.0833 6.49935C20.0833 6.32254 20.0131 6.15297 19.8881 6.02794C19.763 5.90292 19.5935 5.83268 19.4167 5.83268Z" fill="#19BB33"/>
</g>
<defs>
<clipPath id="clip0_76_5625">
<rect width="24" height="24" fill="white" transform="translate(0.75 0.5)"/>
</clipPath>
</defs>
</svg>
