<svg width="16" height="21" viewBox="0 0 16 21" fill="none" xmlns="http://www.w3.org/2000/svg">
<path d="M11 14.5H5C4.73478 14.5 4.48043 14.6054 4.29289 14.7929C4.10536 14.9804 4 15.2348 4 15.5C4 15.7652 4.10536 16.0196 4.29289 16.2071C4.48043 16.3946 4.73478 16.5 5 16.5H11C11.2652 16.5 11.5196 16.3946 11.7071 16.2071C11.8946 16.0196 12 15.7652 12 15.5C12 15.2348 11.8946 14.9804 11.7071 14.7929C11.5196 14.6054 11.2652 14.5 11 14.5ZM5 8.5H6C6.26522 8.5 6.51957 8.39464 6.70711 8.20711C6.89464 8.01957 7 7.76522 7 7.5C7 7.23478 6.89464 6.98043 6.70711 6.79289C6.51957 6.60536 6.26522 6.5 6 6.5H5C4.73478 6.5 4.48043 6.60536 4.29289 6.79289C4.10536 6.98043 4 7.23478 4 7.5C4 7.76522 4.10536 8.01957 4.29289 8.20711C4.48043 8.39464 4.73478 8.5 5 8.5ZM11 10.5H5C4.73478 10.5 4.48043 10.6054 4.29289 10.7929C4.10536 10.9804 4 11.2348 4 11.5C4 11.7652 4.10536 12.0196 4.29289 12.2071C4.48043 12.3946 4.73478 12.5 5 12.5H11C11.2652 12.5 11.5196 12.3946 11.7071 12.2071C11.8946 12.0196 12 11.7652 12 11.5C12 11.2348 11.8946 10.9804 11.7071 10.7929C11.5196 10.6054 11.2652 10.5 11 10.5ZM15.71 13.79C15.6149 13.699 15.5028 13.6276 15.38 13.58C15.2606 13.5259 15.1311 13.4979 15 13.4979C14.8689 13.4979 14.7394 13.5259 14.62 13.58C14.4972 13.6276 14.3851 13.699 14.29 13.79C14.2017 13.8872 14.1306 13.9988 14.08 14.12C14.0034 14.3021 13.9825 14.5028 14.0199 14.6968C14.0572 14.8908 14.1512 15.0694 14.29 15.21C14.3834 15.3027 14.4943 15.376 14.6161 15.4258C14.7379 15.4755 14.8684 15.5008 15 15.5C15.1307 15.4984 15.2598 15.4712 15.38 15.42C15.5012 15.3694 15.6128 15.2983 15.71 15.21C15.8488 15.0694 15.9428 14.8908 15.9801 14.6968C16.0175 14.5028 15.9966 14.3021 15.92 14.12C15.8694 13.9988 15.7983 13.8872 15.71 13.79ZM16 7.44C15.9896 7.34813 15.9695 7.25763 15.94 7.17V7.08C15.8919 6.97718 15.8278 6.88267 15.75 6.8L9.75 0.8C9.66734 0.722216 9.57282 0.658081 9.47 0.61C9.44015 0.60576 9.40985 0.60576 9.38 0.61C9.27841 0.551741 9.16622 0.514344 9.05 0.5H3C2.20435 0.5 1.44129 0.816071 0.87868 1.37868C0.316071 1.94129 0 2.70435 0 3.5V17.5C0 18.2956 0.316071 19.0587 0.87868 19.6213C1.44129 20.1839 2.20435 20.5 3 20.5H11C11.2652 20.5 11.5196 20.3946 11.7071 20.2071C11.8946 20.0196 12 19.7652 12 19.5C12 19.2348 11.8946 18.9804 11.7071 18.7929C11.5196 18.6054 11.2652 18.5 11 18.5H3C2.73478 18.5 2.48043 18.3946 2.29289 18.2071C2.10536 18.0196 2 17.7652 2 17.5V3.5C2 3.23478 2.10536 2.98043 2.29289 2.79289C2.48043 2.60536 2.73478 2.5 3 2.5H8V5.5C8 6.29565 8.31607 7.05871 8.87868 7.62132C9.44129 8.18393 10.2044 8.5 11 8.5H14V10.5C14 10.7652 14.1054 11.0196 14.2929 11.2071C14.4804 11.3946 14.7348 11.5 15 11.5C15.2652 11.5 15.5196 11.3946 15.7071 11.2071C15.8946 11.0196 16 10.7652 16 10.5V7.5C16 7.5 16 7.5 16 7.44ZM11 6.5C10.7348 6.5 10.4804 6.39464 10.2929 6.20711C10.1054 6.01957 10 5.76522 10 5.5V3.91L12.59 6.5H11ZM15 16.5C14.7348 16.5 14.4804 16.6054 14.2929 16.7929C14.1054 16.9804 14 17.2348 14 17.5V19.5C14 19.7652 14.1054 20.0196 14.2929 20.2071C14.4804 20.3946 14.7348 20.5 15 20.5C15.2652 20.5 15.5196 20.3946 15.7071 20.2071C15.8946 20.0196 16 19.7652 16 19.5V17.5C16 17.2348 15.8946 16.9804 15.7071 16.7929C15.5196 16.6054 15.2652 16.5 15 16.5Z" fill="#393939"/>
</svg>
