<svg width="33" height="33" viewBox="0 0 33 33" fill="none" xmlns="http://www.w3.org/2000/svg">
<path d="M30.5033 16.5849C30.5033 15.4338 30.408 14.5938 30.2018 13.7227H16.7891V18.9182H24.662C24.5033 20.2093 23.6462 22.1538 21.7414 23.4603L21.7147 23.6343L25.9555 26.8539L26.2494 26.8827C28.9477 24.4404 30.5033 20.8471 30.5033 16.5849Z" fill="#4285F4"/>
<path d="M16.7853 30.2737C20.6424 30.2737 23.8804 29.0292 26.2456 26.8826L21.7377 23.4602C20.5313 24.2847 18.9123 24.8602 16.7853 24.8602C13.0076 24.8602 9.80128 22.4181 8.65832 19.0425L8.49078 19.0564L4.08111 22.4009L4.02344 22.558C6.37261 27.1314 11.198 30.2737 16.7853 30.2737Z" fill="#34A853"/>
<path d="M8.65866 19.0429C8.35708 18.1718 8.18255 17.2384 8.18255 16.274C8.18255 15.3095 8.35708 14.3762 8.6428 13.5051L8.63481 13.3196L4.16986 9.92139L4.02377 9.98948C3.05556 11.8873 2.5 14.0184 2.5 16.274C2.5 18.5295 3.05556 20.6606 4.02377 22.5584L8.65866 19.0429Z" fill="#FBBC05"/>
<path d="M16.7854 7.68722C19.4679 7.68722 21.2774 8.82277 22.3092 9.77173L26.3409 5.91392C23.8648 3.65838 20.6425 2.27393 16.7854 2.27393C11.198 2.27393 6.37262 5.41612 4.02344 9.98942L8.64247 13.505C9.80131 10.1295 13.0076 7.68722 16.7854 7.68722Z" fill="#EB4335"/>
</svg>
