<svg width="75" height="75" viewBox="0 0 75 75" fill="none" xmlns="http://www.w3.org/2000/svg">
<circle cx="37.5" cy="37.5" r="37.5" fill="#22A336"/>
<g filter="url(#filter0_d_136_2996)">
<circle cx="37.4997" cy="37.4997" r="32.2962" stroke="white" stroke-opacity="0.7" stroke-width="0.985083"/>
</g>
<path d="M54.1647 29.2959C54.1647 30.317 53.764 31.3028 53.0355 32.007L36.0977 48.4148C35.3328 49.119 34.3128 49.5415 33.2565 49.5415C32.2002 49.5415 31.1803 49.119 30.4518 48.4148L21.9646 40.2109C21.2361 39.5067 20.8354 38.5209 20.8354 37.4998C20.8354 36.4787 21.2726 35.528 22.0011 34.7886C22.766 34.0844 23.7495 33.6971 24.8058 33.6619C25.8622 33.6619 26.8456 34.0492 27.6106 34.7534L33.2565 40.2109L47.3896 26.5495C48.1545 25.8453 49.138 25.458 50.1943 25.458C51.2507 25.4932 52.2341 25.8805 52.9991 26.6199C53.7276 27.3241 54.1647 28.2748 54.1647 29.2959Z" fill="white"/>
<defs>
<filter id="filter0_d_136_2996" x="2.74077" y="4.2184" width="69.518" height="69.518" filterUnits="userSpaceOnUse" color-interpolation-filters="sRGB">
<feFlood flood-opacity="0" result="BackgroundImageFix"/>
<feColorMatrix in="SourceAlpha" type="matrix" values="0 0 0 0 0 0 0 0 0 0 0 0 0 0 0 0 0 0 127 0" result="hardAlpha"/>
<feOffset dy="1.47762"/>
<feGaussianBlur stdDeviation="0.985083"/>
<feColorMatrix type="matrix" values="0 0 0 0 0 0 0 0 0 0 0 0 0 0 0 0 0 0 0.12 0"/>
<feBlend mode="normal" in2="BackgroundImageFix" result="effect1_dropShadow_136_2996"/>
<feBlend mode="normal" in="SourceGraphic" in2="effect1_dropShadow_136_2996" result="shape"/>
</filter>
</defs>
</svg>
