<svg width="14" height="20" viewBox="0 0 14 20" fill="none" xmlns="http://www.w3.org/2000/svg">
<path d="M12.6667 2.83317H10.0933C9.82868 2.33405 9.48157 1.88326 9.06667 1.49984H12.6667C12.8435 1.49984 13.013 1.4296 13.1381 1.30458C13.2631 1.17955 13.3333 1.00998 13.3333 0.833171C13.3333 0.65636 13.2631 0.48679 13.1381 0.361766C13.013 0.236742 12.8435 0.166504 12.6667 0.166504H0.666667C0.489856 0.166504 0.320287 0.236742 0.195262 0.361766C0.070238 0.48679 0 0.65636 0 0.833171C0 1.00998 0.070238 1.17955 0.195262 1.30458C0.320287 1.4296 0.489856 1.49984 0.666667 1.49984H5.7C6.23642 1.50031 6.76601 1.62021 7.25032 1.85083C7.73463 2.08146 8.16152 2.41702 8.5 2.83317H0.666667C0.489856 2.83317 0.320287 2.90341 0.195262 3.02843C0.070238 3.15346 0 3.32303 0 3.49984C0 3.67665 0.070238 3.84622 0.195262 3.97124C0.320287 4.09627 0.489856 4.1665 0.666667 4.1665H9.19333C9.28617 4.494 9.33328 4.83277 9.33333 5.17317C9.33511 6.13979 8.95373 7.06773 8.27273 7.75373C7.59173 8.43973 6.66661 8.82788 5.7 8.83317H1.42667C1.29855 8.83333 1.17319 8.87041 1.0656 8.93996C0.958 9.00951 0.872724 9.10859 0.819974 9.22535C0.767223 9.3421 0.749232 9.47159 0.768154 9.5983C0.787076 9.72501 0.842109 9.84359 0.926667 9.93984L8.70667 18.8332C8.76312 18.9033 8.83318 18.9612 8.91262 19.0035C8.99206 19.0458 9.07924 19.0715 9.1689 19.0792C9.25857 19.0869 9.34886 19.0764 9.43434 19.0482C9.51983 19.0201 9.59872 18.9749 9.66628 18.9155C9.73384 18.856 9.78867 18.7835 9.82745 18.7023C9.86623 18.6211 9.88817 18.5329 9.89194 18.4429C9.89572 18.353 9.88125 18.2633 9.84941 18.1791C9.81756 18.0949 9.76901 18.0181 9.70667 17.9532L2.9 10.1665H5.70667C6.44498 10.1605 7.17283 9.99136 7.83808 9.67107C8.50333 9.35079 9.08951 8.88734 9.55462 8.31392C10.0197 7.74049 10.3522 7.0713 10.5284 6.35428C10.7045 5.63726 10.7198 4.89016 10.5733 4.1665H12.6667C12.8435 4.1665 13.013 4.09627 13.1381 3.97124C13.2631 3.84622 13.3333 3.67665 13.3333 3.49984C13.3333 3.32303 13.2631 3.15346 13.1381 3.02843C13.013 2.90341 12.8435 2.83317 12.6667 2.83317Z" fill="#19BB33"/>
</svg>
