<svg width="14" height="20" viewBox="0 0 14 20" fill="none" xmlns="http://www.w3.org/2000/svg">
<path d="M13.1667 2.83342H10.5933C10.3287 2.3343 9.98157 1.88351 9.56667 1.50008H13.1667C13.3435 1.50008 13.513 1.42984 13.6381 1.30482C13.7631 1.1798 13.8333 1.01023 13.8333 0.833415C13.8333 0.656604 13.7631 0.487035 13.6381 0.36201C13.513 0.236986 13.3435 0.166748 13.1667 0.166748H1.16667C0.989856 0.166748 0.820287 0.236986 0.695262 0.36201C0.570238 0.487035 0.5 0.656604 0.5 0.833415C0.5 1.01023 0.570238 1.1798 0.695262 1.30482C0.820287 1.42984 0.989856 1.50008 1.16667 1.50008H6.2C6.73642 1.50055 7.26601 1.62045 7.75032 1.85108C8.23463 2.0817 8.66152 2.41727 9 2.83342H1.16667C0.989856 2.83342 0.820287 2.90365 0.695262 3.02868C0.570238 3.1537 0.5 3.32327 0.5 3.50008C0.5 3.67689 0.570238 3.84646 0.695262 3.97149C0.820287 4.09651 0.989856 4.16675 1.16667 4.16675H9.69333C9.78617 4.49425 9.83328 4.83301 9.83333 5.17342C9.83511 6.14004 9.45373 7.06797 8.77273 7.75397C8.09173 8.43997 7.16661 8.82813 6.2 8.83342H1.92667C1.79855 8.83358 1.67319 8.87065 1.5656 8.9402C1.458 9.00976 1.37272 9.10884 1.31997 9.22559C1.26722 9.34235 1.24923 9.47183 1.26815 9.59854C1.28708 9.72526 1.34211 9.84383 1.42667 9.94008L9.20667 18.8334C9.26312 18.9035 9.33318 18.9614 9.41262 19.0037C9.49206 19.046 9.57924 19.0718 9.6689 19.0795C9.75857 19.0871 9.84886 19.0766 9.93434 19.0485C10.0198 19.0203 10.0987 18.9752 10.1663 18.9157C10.2338 18.8563 10.2887 18.7837 10.3274 18.7025C10.3662 18.6213 10.3882 18.5331 10.3919 18.4432C10.3957 18.3533 10.3812 18.2635 10.3494 18.1793C10.3176 18.0952 10.269 18.0183 10.2067 17.9534L3.4 10.1667H6.20667C6.94498 10.1608 7.67283 9.9916 8.33808 9.67132C9.00333 9.35103 9.58951 8.88758 10.0546 8.31416C10.5197 7.74074 10.8523 7.07154 11.0284 6.35452C11.2045 5.6375 11.2198 4.8904 11.0733 4.16675H13.1667C13.3435 4.16675 13.513 4.09651 13.6381 3.97149C13.7631 3.84646 13.8333 3.67689 13.8333 3.50008C13.8333 3.32327 13.7631 3.1537 13.6381 3.02868C13.513 2.90365 13.3435 2.83342 13.1667 2.83342Z" fill="#188129"/>
</svg>
