<svg width="16" height="16" viewBox="0 0 16 16" fill="none" xmlns="http://www.w3.org/2000/svg">
<path d="M15.2142 5.88377C15.167 5.74492 15.0803 5.62292 14.9646 5.53282C14.8489 5.44272 14.7093 5.38847 14.5632 5.37677L10.2874 5.03702L8.43718 0.941272C8.37825 0.809357 8.28241 0.697314 8.16121 0.618666C8.04001 0.540018 7.89865 0.498126 7.75417 0.498047C7.60969 0.497968 7.46828 0.539704 7.34699 0.618219C7.22571 0.696734 7.12975 0.808672 7.07068 0.940523L5.22043 5.03702L0.944676 5.37677C0.801017 5.38815 0.663679 5.44068 0.549092 5.52807C0.434505 5.61546 0.347521 5.73401 0.298546 5.86954C0.249571 6.00507 0.240679 6.15185 0.272935 6.2923C0.30519 6.43275 0.377227 6.56094 0.480426 6.66152L3.64018 9.74177L2.52268 14.5808C2.48874 14.7272 2.49962 14.8805 2.55389 15.0208C2.60816 15.161 2.70332 15.2816 2.82703 15.3671C2.95073 15.4526 3.09727 15.4989 3.24761 15.5C3.39796 15.5012 3.54518 15.4571 3.67018 15.3735L7.75393 12.651L11.8377 15.3735C11.9654 15.4583 12.1161 15.502 12.2694 15.4986C12.4227 15.4953 12.5713 15.4451 12.6952 15.3547C12.8191 15.2644 12.9124 15.1383 12.9625 14.9933C13.0126 14.8484 13.0171 14.6916 12.9754 14.544L11.6037 9.74402L15.0057 6.68252C15.2284 6.48152 15.3102 6.16802 15.2142 5.88377Z" fill="#E9C404"/>
</svg>
